:version 1.10
:name ASF
:units
  mass 1
  length 1
  angle deg
:documentation
  ASF file generated by Kaydara
:root
  axis xyz
  order  tx ty tz rx ry rz
  position 0 0 0
  orientation 0 0 0
:bonedata
  begin
    id 1
    name RightUpLegDummy
    direction -0.718183 -0.695806 0.00816078
    length 4.904
    axis 0 0 0 xyz
  end
  begin
    id 2
    name RightUpLeg
    direction -0.00334265 -0.999142 0.0412837
    length 17.4976
    axis -0.59612 0.00940841 -0.192072 xyz
    dof rx ry rz
  end
  begin
    id 3
    name RightLeg
    direction 0.000365068 -0.988824 -0.149089
    length 16.5821
    axis 6.58657 0.0604092 -0.318554 xyz
    dof rx ry rz
  end
  begin
    id 4
    name RightFoot
    direction 0.00079069 -0.460991 0.887405
    length 3.77069
    axis 0.000105557 -0.120464 -0.188919 xyz
    dof rx ry rz
  end
  begin
    id 5
    name RightToes
    direction 0.00124768 -0.014065 0.9999
    length 3.85082
    axis 0.00053932 0.542178 -0.142707 xyz
    dof rx ry rz
  end
  begin
    id 6
    name SpineDummy
    direction 8.3039e-015 1 4.58682e-016
    length 4.6813
    axis 0 0 0 xyz
  end
  begin
    id 7
    name Spine
    direction 4.12799e-006 0.999988 0.00494944
    length 10.1015
    axis -0.00149944 0.000129667 -0.000235877 xyz
    dof rx ry rz
  end
  begin
    id 8
    name Spine1
    direction 0 0 0
    length 0
    axis -0.00160567 0.000129431 -0.000308381 xyz
    dof rx ry rz
  end
  begin
    id 9
    name HEadDummy
    direction 5.38513e-006 0.999999 0.00127044
    length 3.43865
    axis -0.00160567 0.000129431 -0.000308381 xyz
  end
  begin
    id 10
    name HEad
    direction -0.0226495 0.980942 0.192974
    length 5.12695
    axis -0.00160642 -0.114462 -0.000307946 xyz
    dof rx ry rz
  end
  begin
    id 11
    name LeftShoulder1Dummy
    direction 0.99889 -0.0402564 -0.0244456
    length 3.5433
    axis -0.00160567 0.000129431 -0.000308381 xyz
  end
  begin
    id 12
    name LeftShoulder1
    direction 0.999464 -0.00142945 0.0326977
    length 4.05031
    axis 0.393425 -0.0796525 -0.0507861 xyz
    dof rx ry rz
  end
  begin
    id 13
    name LeftArm
    direction 0.998564 -0.000899612 -0.053557
    length 10.3537
    axis -22.9476 0.126974 0.960871 xyz
    dof rx ry rz
  end
  begin
    id 14
    name LeftForeArm
    direction 0.998903 0.00865904 0.0460121
    length 8.70632
    axis -9.91856 -0.0656997 -0.178106 xyz
    dof rx ry rz
  end
  begin
    id 15
    name LeftHand
    direction 0.992938 -0.0411687 0.11126
    length 5.32135
    axis -0.00981066 -0.00340928 0.18486 xyz
    dof rx ry rz
  end
  begin
    id 16
    name RightShoulderDummy
    direction -0.998891 -0.0402456 -0.0244411
    length 3.5433
    axis -0.00160567 0.000129431 -0.000308381 xyz
  end
  begin
    id 17
    name RightShoulder
    direction -0.999353 -0.00388479 0.0357579
    length 4.05031
    axis 1.48787 0.256014 0.157284 xyz
    dof rx ry rz
  end
  begin
    id 18
    name RightArm
    direction -0.998583 -0.000660455 -0.0532032
    length 10.3947
    axis -22.4211 -0.109147 -0.943573 xyz
    dof rx ry rz
  end
  begin
    id 19
    name RightForeArm
    direction -0.998898 0.00868588 0.0461311
    length 8.68355
    axis -9.92343 0.0658342 0.178556 xyz
    dof rx ry rz
  end
  begin
    id 20
    name RightHand
    direction -0.992843 -0.0414545 0.112004
    length 5.28593
    axis -0.00982288 0.00332907 -0.185539 xyz
    dof rx ry rz
  end
  begin
    id 21
    name LeftUpLegDummy
    direction 0.718183 -0.695806 0.00816078
    length 4.904
    axis 0 0 0 xyz
  end
  begin
    id 22
    name LeftUpLeg
    direction 0.00445374 -0.999139 0.0412407
    length 17.4976
    axis -0.593655 -0.0138231 0.255969 xyz
    dof rx ry rz
  end
  begin
    id 23
    name LeftLeg
    direction -0.00154847 -0.988829 -0.149046
    length 16.5821
    axis 6.5841 -0.0555156 0.250722 xyz
    dof rx ry rz
  end
  begin
    id 24
    name LeftFoot
    direction -0.00417678 -0.460985 0.887398
    length 3.77069
    axis 5.53694e-005 4.88088e-005 -0.000136194 xyz
    dof rx ry rz
  end
  begin
    id 25
    name LeftToes
    direction 0.00818061 -0.00485256 0.999955
    length 3.85048
    axis 6.41179e-005 4.88477e-005 -0.000136145 xyz
    dof rx ry rz
  end
:hierarchy
  begin
    root RightUpLegDummy SpineDummy LeftUpLegDummy
    RightUpLegDummy RightUpLeg
    RightUpLeg RightLeg
    RightLeg RightFoot
    RightFoot RightToes
    SpineDummy Spine
    Spine Spine1
    Spine1 HEadDummy LeftShoulder1Dummy RightShoulderDummy
    HEadDummy HEad
    LeftShoulder1Dummy LeftShoulder1
    LeftShoulder1 LeftArm
    LeftArm LeftForeArm
    LeftForeArm LeftHand
    RightShoulderDummy RightShoulder
    RightShoulder RightArm
    RightArm RightForeArm
    RightForeArm RightHand
    LeftUpLegDummy LeftUpLeg
    LeftUpLeg LeftLeg
    LeftLeg LeftFoot
    LeftFoot LeftToes
  end

:SAMPLES-PER-SECOND 30
:FULLY-SPECIFIED
:DEGREES
60
root  -78.4546 40.3898 -0.909166 -26.5927 87.695 -29.1188
RightUpLeg  -3.4209 2.46459 2.80483
RightLeg  0.859621 8.28083 0.233017
RightFoot  -1.93369 0.248127 -2.53107
RightToes  -6.40286e-010 -1.59028e-015 9.93923e-017
Spine  -12.7361 0.323457 3.21702
Spine1  12.9341 0.528999 -2.45787
HEad  -8.13104 1.24782 -0.0840799
LeftShoulder1  9.93923e-017 0 1.22299e-017
LeftArm  16.7949 43.2979 -81.0605
LeftForeArm  -34.5731 -19.8107 2.7009
LeftHand  0.975559 6.89966 -2.9431
RightShoulder  1.98785e-016 -4.96962e-017 1.55301e-017
RightArm  22.2767 -46.5705 85.6694
RightForeArm  -46.348 19.7236 -11.9094
RightHand  1.1559 -10.5911 -4.80514
LeftUpLeg  -4.60615 -0.778563 -1.48146
LeftLeg  2.91065 -5.61885 -0.0238532
LeftFoot  -2.62339 -0.0878248 0.83313
LeftToes  8.73142e-011 -6.07963e-011 6.03181e-012
61
root  -78.3958 40.38 -1.00658 -26.8092 87.5649 -29.3508
RightUpLeg  -3.40781 2.4901 2.74431
RightLeg  0.973977 8.33161 0.164984
RightFoot  -2.30028 0.208759 -2.20052
RightToes  -6.40286e-010 -1.59028e-015 9.93923e-017
Spine  -12.5361 0.395935 3.38874
Spine1  12.943 0.591747 -2.49411
HEad  -8.40049 1.2643 0.025087
LeftShoulder1  9.93923e-017 0 1.22299e-017
LeftArm  16.7336 43.4237 -81.2848
LeftForeArm  -34.0796 -19.8167 2.75594
LeftHand  0.959583 6.7323 -3.81597
RightShoulder  1.98785e-016 -4.96962e-017 1.55301e-017
RightArm  22.2909 -46.4416 85.3555
RightForeArm  -46.0106 19.6838 -11.6534
RightHand  1.12776 -10.3966 -4.76076
LeftUpLeg  -4.66737 -0.892627 -1.59832
LeftLeg  3.2346 -5.38621 0.105765
LeftFoot  -3.06738 -0.0838683 0.806819
LeftToes  8.73142e-011 -6.07963e-011 6.03181e-012
62
root  -78.3051 40.3666 -1.11884 -27.1518 87.5471 -29.7108
RightUpLeg  -3.37013 2.48947 2.61533
RightLeg  1.15568 8.2948 0.058031
RightFoot  -2.65372 0.15438 -1.68624
RightToes  -6.40286e-010 -1.59028e-015 9.93923e-017
Spine  -12.4173 0.417934 3.49017
Spine1  12.9629 0.623394 -2.58432
HEad  -8.54331 1.2632 0.205852
LeftShoulder1  9.93923e-017 0 1.22299e-017
LeftArm  17.1855 43.6882 -81.4704
LeftForeArm  -34.0385 -19.9731 3.01002
LeftHand  0.935957 6.46047 -4.78045
RightShoulder  1.98785e-016 -4.96962e-017 1.55301e-017
RightArm  22.5922 -46.4432 85.0991
RightForeArm  -46.0931 19.6838 -11.5844
RightHand  1.11987 -10.3223 -4.82248
LeftUpLeg  -4.62981 -0.987205 -1.76725
LeftLeg  3.4696 -5.26193 0.167066
LeftFoot  -3.52603 -0.0786755 0.777713
LeftToes  8.73142e-011 -6.07963e-011 6.03181e-012
63
root  -78.1828 40.3507 -1.24691 -29.4883 87.6694 -32.0585
RightUpLeg  -3.37549 2.47826 2.4658
RightLeg  1.59285 8.12991 -0.0829678
RightFoot  -2.96719 0.104087 -1.18338
RightToes  -6.40286e-010 -1.59028e-015 9.93923e-017
Spine  -12.4126 0.400734 3.51064
Spine1  13.0267 0.606038 -2.62631
HEad  -8.53418 1.09504 0.398341
LeftShoulder1  9.93923e-017 0 1.22299e-017
LeftArm  17.4479 43.9255 -81.5616
LeftForeArm  -34.3002 -20.0547 3.11033
LeftHand  0.928781 6.38867 -4.81007
RightShoulder  1.98785e-016 -4.96962e-017 1.55301e-017
RightArm  22.9052 -46.6492 84.8786
RightForeArm  -46.4272 19.714 -11.7337
RightHand  1.13311 -10.4231 -4.80929
LeftUpLeg  -4.54097 -1.00999 -1.93758
LeftLeg  3.71183 -5.36584 0.15256
LeftFoot  -3.96841 -0.081525 0.843639
LeftToes  8.73142e-011 -6.07963e-011 6.03181e-012
64
root  -78.0348 40.3158 -1.37964 -34.9685 87.914 -37.5318
RightUpLeg  -3.5831 2.50733 2.3358
RightLeg  2.59684 7.76027 -0.256908
RightFoot  -3.81886 0.0635846 -0.774448
RightToes  -6.40286e-010 -1.59028e-015 9.93923e-017
Spine  -12.4767 0.340415 3.35884
Spine1  13.1581 0.511016 -2.53822
HEad  -8.39349 0.777812 0.492028
LeftShoulder1  9.93923e-017 0 1.22299e-017
LeftArm  17.3875 44.0286 -81.5724
LeftForeArm  -34.5153 -19.9796 2.93771
LeftHand  0.939185 6.52421 -4.20134
RightShoulder  1.98785e-016 -4.96962e-017 1.55301e-017
RightArm  22.7626 -46.977 84.6626
RightForeArm  -46.4147 19.7154 -11.8303
RightHand  1.14075 -10.5148 -4.6767
LeftUpLeg  -4.51793 -0.941762 -2.08452
LeftLeg  4.19046 -5.77535 0.112056
LeftFoot  -4.5137 -0.100323 1.11874
LeftToes  8.73142e-011 -6.07963e-011 6.03181e-012
65
root  -77.8735 40.2302 -1.49439 -37.385 88.1699 -39.9322
RightUpLeg  -4.39009 2.93225 2.14241
RightLeg  4.81876 7.0776 -0.600196
RightFoot  -5.57884 0.0122985 -0.16573
RightToes  -6.40286e-010 -1.59028e-015 9.93923e-017
Spine  -12.3939 0.280057 2.78067
Spine1  13.199 0.405663 -2.33269
HEad  -8.23954 0.457106 0.50796
LeftShoulder1  9.93923e-017 0 1.22299e-017
LeftArm  17.4163 44.0765 -81.5032
LeftForeArm  -34.4838 -19.8718 2.72777
LeftHand  0.944873 6.59699 -3.80753
RightShoulder  1.98785e-016 -4.96962e-017 1.55301e-017
RightArm  22.4817 -47.268 84.5031
RightForeArm  -46.184 19.6974 -11.8341
RightHand  1.13089 -10.4713 -4.56752
LeftUpLeg  -4.69275 -0.845727 -2.32479
LeftLeg  5.16447 -6.22645 0.0984936
LeftFoot  -5.37813 -0.125751 1.56712
LeftToes  8.73142e-011 -6.07963e-011 6.03181e-012
66
root  -77.7082 40.0854 -1.57703 -25.6298 88.3129 -28.0898
RightUpLeg  -6.08767 4.65958 1.59843
RightLeg  8.91895 5.51212 -1.11735
RightFoot  -7.47157 -0.0378354 0.772777
RightToes  -6.40286e-010 -1.59028e-015 9.93923e-017
Spine  -11.8774 0.264084 1.59712
Spine1  12.9672 0.381061 -2.08142
HEad  -8.29136 0.239731 0.596645
LeftShoulder1  9.93923e-017 0 1.22299e-017
LeftArm  18.2288 44.2108 -81.2413
LeftForeArm  -34.7604 -19.9918 2.88138
LeftHand  0.937603 6.52707 -3.84862
RightShoulder  1.98785e-016 -4.96962e-017 1.55301e-017
RightArm  22.5713 -47.4027 84.5352
RightForeArm  -46.2355 19.7101 -11.9391
RightHand  1.11518 -10.3634 -4.53316
LeftUpLeg  -4.97226 -0.798745 -2.82165
LeftLeg  6.62401 -6.3106 0.127464
LeftFoot  -6.56555 -0.137139 1.96829
LeftToes  8.73142e-011 -6.07963e-011 6.03181e-012
67
root  -77.5308 39.9165 -1.63637 -2.40785 88.1675 -4.63459
RightUpLeg  -8.46491 7.29778 0.602605
RightLeg  14.5465 3.30553 -1.65356
RightFoot  -8.39817 -0.0667005 1.61184
RightToes  -6.40286e-010 -1.59028e-015 9.93923e-017
Spine  -10.9288 0.241842 0.133627
Spine1  12.5418 0.405718 -1.99249
HEad  -8.67479 0.179799 0.782779
LeftShoulder1  9.93923e-017 0 1.22299e-017
LeftArm  20.2174 44.4388 -80.6406
LeftForeArm  -36.0706 -20.4322 3.50192
LeftHand  0.937515 6.51729 -4.03032
RightShoulder  1.98785e-016 -4.96962e-017 1.55301e-017
RightArm  22.6292 -47.3683 84.9014
RightForeArm  -46.4475 19.7411 -12.1325
RightHand  1.11036 -10.3286 -4.52794
LeftUpLeg  -5.0947 -0.790004 -3.54185
LeftLeg  8.2094 -6.01158 0.198744
LeftFoot  -7.80159 -0.12878 2.15762
LeftToes  8.73142e-011 -6.07963e-011 6.03181e-012
68
root  -77.3161 39.7817 -1.69324 12.9571 87.8603 11.0208
RightUpLeg  -10.9589 7.59325 -0.0769346
RightLeg  19.9136 3.09427 -2.37883
RightFoot  -8.34063 -0.0819197 1.97579
RightToes  -6.40286e-010 -1.59028e-015 9.93923e-017
Spine  -9.96749 0.100539 -0.875882
Spine1  12.1926 0.341322 -2.24442
HEad  -9.20701 0.331286 0.839419
LeftShoulder1  9.93923e-017 0 1.22299e-017
LeftArm  22.2909 44.5705 -79.7459
LeftForeArm  -37.3994 -20.7253 3.83506
LeftHand  0.952911 6.65942 -4.11902
RightShoulder  1.98785e-016 -4.96962e-017 1.55301e-017
RightArm  21.9854 -47.2864 85.585
RightForeArm  -46.4199 19.7461 -12.2469
RightHand  1.12006 -10.3922 -4.56153
LeftUpLeg  -4.91153 -0.726182 -4.15519
LeftLeg  9.38928 -5.76408 0.270224
LeftFoot  -8.79374 -0.115211 2.218
LeftToes  8.73142e-011 -6.07963e-011 6.03181e-012
